<svg width="25" height="25" viewBox="0 0 25 25" fill="none" xmlns="http://www.w3.org/2000/svg">
<path d="M11.667 10.8334H18.667" stroke="#171515" strokeWidth="1.5" strokeLinecap="round" strokeLinejoin="round"/>
<path d="M11.667 10.8334H18.667" stroke="white" strokeOpacity="0.3" strokeWidth="1.5" strokeLinecap="round" strokeLinejoin="round"/>
<path d="M11.667 14.8334H16.667" stroke="#171515" strokeWidth="1.5" strokeLinecap="round" strokeLinejoin="round"/>
<path d="M11.667 14.8334H16.667" stroke="white" strokeOpacity="0.3" strokeWidth="1.5" strokeLinecap="round" strokeLinejoin="round"/>
<path d="M11.667 18.8334H14.667" stroke="#171515" strokeWidth="1.5" strokeLinecap="round" strokeLinejoin="round"/>
<path d="M11.667 18.8334H14.667" stroke="white" strokeOpacity="0.3" strokeWidth="1.5" strokeLinecap="round" strokeLinejoin="round"/>
<path d="M11.667 6.83337H21.667" stroke="#171515" strokeWidth="1.5" strokeLinecap="round" strokeLinejoin="round"/>
<path d="M11.667 6.83337H21.667" stroke="white" strokeOpacity="0.3" strokeWidth="1.5" strokeLinecap="round" strokeLinejoin="round"/>
<path d="M7.66699 19.6459C7.27377 20.0884 6.22717 21.8334 5.66699 21.8334M5.66699 21.8334C5.10681 21.8334 4.06021 20.0884 3.66699 19.6459M5.66699 21.8334V15.8334" stroke="#171515" strokeWidth="1.5" strokeLinecap="round" strokeLinejoin="round"/>
<path d="M7.66699 19.6459C7.27377 20.0884 6.22717 21.8334 5.66699 21.8334M5.66699 21.8334C5.10681 21.8334 4.06021 20.0884 3.66699 19.6459M5.66699 21.8334V15.8334" stroke="white" strokeOpacity="0.3" strokeWidth="1.5" strokeLinecap="round" strokeLinejoin="round"/>
<path d="M3.66699 6.02087C4.06021 5.57838 5.10681 3.83337 5.66699 3.83337M5.66699 3.83337C6.22717 3.83337 7.27377 5.57838 7.66699 6.02087M5.66699 3.83337V9.83337" stroke="#171515" strokeWidth="1.5" strokeLinecap="round" strokeLinejoin="round"/>
<path d="M3.66699 6.02087C4.06021 5.57838 5.10681 3.83337 5.66699 3.83337M5.66699 3.83337C6.22717 3.83337 7.27377 5.57838 7.66699 6.02087M5.66699 3.83337V9.83337" stroke="white" strokeOpacity="0.3" strokeWidth="1.5" strokeLinecap="round" strokeLinejoin="round"/>
</svg>
